<?xml version="1.0" standalone="yes"?><!DOCTYPE svg PUBLIC "-//W3C//DTD SVG 1.1//EN" "http://www.w3.org/Graphics/SVG/1.1/DTD/svg11.dtd"[
<!ENTITY E6 'stroke:none;opacity:1;fill:rgb(255,255,255);'><!ENTITY E3 'stroke:none;opacity:1;fill:rgb(68,154,223);'><!ENTITY E1 'stroke:rgb(169,169,169);fill:none;stroke-linecap:butt;stroke-miterlimit:9;opacity:1;stroke-width:1.5625;stroke-linejoin:miter;'><!ENTITY E14 'matrix(1.56 0.00 0.00 1.56 131.25 6.25 ) '><!ENTITY E8 'matrix(1.00 0.00 0.00 1.00 0.00 0.00 ) '><!ENTITY E11 'matrix(1.56 0.00 0.00 1.56 256.25 6.25 ) '><!ENTITY E18 'matrix(1.56 0.00 0.00 1.56 6.25 6.25 ) '><!ENTITY E5 'stroke:none;fill-rule:evenodd;opacity:1;fill:rgb(255,255,255);'><!ENTITY E2 'matrix(1.56 0.00 0.00 1.56 381.25 6.25 ) '><!ENTITY E4 'M 18.422 13 13.4357 18.5006 10.8556 15.9868 6.500101 20.5001 23.9571 20.48582 z '><!ENTITY E9 'matrix(1.56 0.00 0.00 1.56 381.25 131.25 ) '>
]><svg width="484.047" height="206.3611" id="SvgGdi_output" xmlns="http://www.w3.org/2000/svg"><rect id="background" height="100.00%" style="fill:rgb(255,255,255);" width="100.00%" y="0.00" x="0.00" /><g style="shape-rendering:auto;" id="root_group"><line y1="29.69" style="&E1;" id="45" x2="375.00" y2="29.69" x1="309.38" /><line y1="29.69" style="&E1;" id="46" x2="375.00" y2="154.69" x1="309.38" /><line y1="29.69" style="&E1;" id="47" x2="250.00" y2="29.69" x1="184.38" /><line y1="29.69" style="&E1;" id="48" x2="125.00" y2="29.69" x1="59.38" /><ellipse id="49" cy="15.00" cx="15.00" transform="&E2;" rx="15.00" ry="15.00" style="&E3;" /><path d="&E4;" style="&E5;" transform="&E2;" id="50" /><ellipse id="51" cy="10.96" cx="10.92" transform="&E2;" rx="2.75" ry="2.75" style="&E6;" /><text id="52" transform="&E8;" x="381.25" y="60.94" style="stroke:none;clip-path:url(#54_text_clipper);font-family:Microsoft Sans Serif;fill:rgb(0,0,0);font-size:12.19pt;opacity:1;"><tspan dy="12.19pt" id="56">GetBodyPart</tspan></text><ellipse id="58" cy="15.00" cx="15.00" transform="&E9;" rx="15.00" ry="15.00" style="&E3;" /><path d="&E4;" style="&E5;" transform="&E9;" id="59" /><ellipse id="60" cy="10.96" cx="10.92" transform="&E9;" rx="2.75" ry="2.75" style="&E6;" /><text id="61" transform="&E8;" x="381.25" y="185.94" style="stroke:none;clip-path:url(#63_text_clipper);font-family:Microsoft Sans Serif;fill:rgb(0,0,0);font-size:12.19pt;opacity:1;"><tspan dy="12.19pt" id="65">GetBodyPart</tspan></text><ellipse id="67" cy="15.00" cx="15.00" transform="&E11;" rx="15.00" ry="15.00" style="&E3;" /><path d="&E4;" style="&E5;" transform="&E11;" id="68" /><ellipse id="69" cy="10.96" cx="10.92" transform="&E11;" rx="2.75" ry="2.75" style="&E6;" /><text id="70" transform="&E8;" x="256.25" y="60.94" style="stroke:none;clip-path:url(#72_text_clipper);font-family:Microsoft Sans Serif;fill:rgb(0,0,0);font-size:12.19pt;opacity:1;"><tspan dy="12.19pt" id="74">Confidence</tspan></text><text id="76" transform="&E8;" x="256.25" y="79.33" style="stroke:none;clip-path:url(#78_text_clipper);font-family:Microsoft Sans Serif;fill:rgb(0,0,0);font-size:12.19pt;opacity:1;"><tspan dy="12.19pt" id="80">Threshold</tspan></text><ellipse id="82" cy="15.00" cx="15.00" transform="&E14;" rx="15.00" ry="15.00" style="&E3;" /><path d="&E4;" style="&E5;" transform="&E14;" id="83" /><ellipse id="84" cy="10.96" cx="10.92" transform="&E14;" rx="2.75" ry="2.75" style="&E6;" /><text id="85" transform="&E8;" x="131.25" y="60.94" style="stroke:none;clip-path:url(#87_text_clipper);font-family:Microsoft Sans Serif;fill:rgb(0,0,0);font-size:12.19pt;opacity:1;"><tspan dy="12.19pt" id="89">DetectPose</tspan></text><path transform="&E18;" id="91" d="M 31.179 5.2 C 34.9985 11.0918 34.9814 18.682 31.13552 24.557 " style="stroke:rgb(169,169,169);fill:none;stroke-linecap:butt;stroke-miterlimit:9;opacity:1;stroke-width:2;stroke-linejoin:miter;" /><ellipse id="92" cy="15.00" cx="15.00" transform="&E18;" rx="15.00" ry="15.00" style="stroke:none;opacity:1;fill:rgb(91,178,126);" /><path style="&E5;" transform="&E18;" id="93" d="M 23.75 9.1 19.5587 11.5211 19.5587 18.3937 23.75 20.8147 z " /><path style="&E5;" transform="&E18;" id="94" d="M 8.6927 9.2 15.7194 9.2 C 17.19 9.2 18.3739 10.4337 18.3739 11.9661 L 18.3739 17.8234 C 18.3739 19.3558 17.19 20.5893 15.7194 20.5893 L 8.692701 20.5893 C 7.222101 20.5893 6.038201 19.3558 6.038201 17.8234 L 6.038201 11.9661 C 6.038201 10.4337 7.222101 9.199999 8.692701 9.199999 z " /><text id="95" transform="&E8;" x="6.25" y="60.94" style="stroke:none;clip-path:url(#97_text_clipper);font-family:Microsoft Sans Serif;fill:rgb(0,0,0);font-size:12.19pt;opacity:1;"><tspan dy="12.19pt" id="99">Camera</tspan></text><text id="101" transform="&E8;" x="6.25" y="79.33" style="stroke:none;clip-path:url(#103_text_clipper);font-family:Microsoft Sans Serif;fill:rgb(0,0,0);font-size:12.19pt;opacity:1;"><tspan dy="12.19pt" id="105">Capture</tspan></text></g><defs id="clips_hatches_and_gradients"><clipPath id="54_text_clipper"><rect x="381.25" y="60.94" width="101.23" height="20.42" id="55" /></clipPath><clipPath id="63_text_clipper"><rect x="381.25" y="185.94" width="101.23" height="20.42" id="64" /></clipPath><clipPath id="72_text_clipper"><rect x="256.25" y="60.94" width="90.18" height="40.85" id="73" /></clipPath><clipPath id="78_text_clipper"><rect x="256.25" y="79.33" width="90.18" height="40.85" id="79" /></clipPath><clipPath id="87_text_clipper"><rect x="131.25" y="60.94" width="91.94" height="20.42" id="88" /></clipPath><clipPath id="97_text_clipper"><rect x="6.25" y="60.94" width="64.95" height="40.85" id="98" /></clipPath><clipPath id="103_text_clipper"><rect x="6.25" y="79.33" width="64.95" height="40.85" id="104" /></clipPath></defs></svg>