<?xml version="1.0" encoding="UTF-8" standalone="no"?>
<svg
   width="150mm"
   height="86.888481mm"
   id="SvgGdi_output"
   version="1.1"
   sodipodi:docname="buffertrigger-snapshot.svg"
   inkscape:version="1.1.2 (b8e25be833, 2022-02-05)"
   xmlns:inkscape="http://www.inkscape.org/namespaces/inkscape"
   xmlns:sodipodi="http://sodipodi.sourceforge.net/DTD/sodipodi-0.dtd"
   xmlns="http://www.w3.org/2000/svg"
   xmlns:svg="http://www.w3.org/2000/svg"
   xmlns:rdf="http://www.w3.org/1999/02/22-rdf-syntax-ns#"
   xmlns:cc="http://creativecommons.org/ns#"
   xmlns:dc="http://purl.org/dc/elements/1.1/">
  <metadata
     id="metadata44">
    <rdf:RDF>
      <cc:Work
         rdf:about="">
        <dc:format>image/svg+xml</dc:format>
        <dc:type
           rdf:resource="http://purl.org/dc/dcmitype/StillImage" />
      </cc:Work>
    </rdf:RDF>
  </metadata>
  <sodipodi:namedview
     pagecolor="#ffffff"
     bordercolor="#666666"
     borderopacity="1"
     objecttolerance="10"
     gridtolerance="10"
     guidetolerance="10"
     inkscape:pageopacity="0"
     inkscape:pageshadow="2"
     inkscape:window-width="2560"
     inkscape:window-height="1334"
     id="namedview42"
     showgrid="false"
     units="mm"
     inkscape:zoom="1.6831189"
     inkscape:cx="257.85463"
     inkscape:cy="83.178912"
     inkscape:window-x="-11"
     inkscape:window-y="-11"
     inkscape:window-maximized="1"
     inkscape:current-layer="SvgGdi_output"
     inkscape:pagecheckerboard="0"
     inkscape:document-units="mm" />
  <defs
     id="clips_hatches_and_gradients">
    <clipPath
       id="308_text_clipper">
      <rect
         x="246"
         y="58.5"
         width="56.650002"
         height="19.799999"
         id="309" />
    </clipPath>
    <clipPath
       id="316_text_clipper">
      <rect
         x="126"
         y="58.5"
         width="74.760002"
         height="39.59"
         id="317" />
    </clipPath>
    <clipPath
       id="322_text_clipper">
      <rect
         x="126"
         y="76.330002"
         width="74.760002"
         height="39.59"
         id="323" />
    </clipPath>
    <clipPath
       id="333_text_clipper">
      <rect
         x="6"
         y="58.5"
         width="104.53"
         height="19.799999"
         id="334" />
    </clipPath>
    <clipPath
       id="343_text_clipper">
      <rect
         x="6"
         y="178.5"
         width="74.669998"
         height="19.799999"
         id="344" />
    </clipPath>
    <clipPath
       id="57_text_clipper">
      <rect
         x="164"
         y="39"
         width="39.560001"
         height="13.83"
         id="58" />
    </clipPath>
    <clipPath
       id="65_text_clipper">
      <rect
         x="84"
         y="39"
         width="69.839996"
         height="13.83"
         id="66" />
    </clipPath>
    <clipPath
       id="76_text_clipper">
      <rect
         x="4"
         y="39"
         width="73.010002"
         height="13.83"
         id="77" />
    </clipPath>
    <clipPath
       id="86_text_clipper">
      <rect
         x="4"
         y="119"
         width="52.150002"
         height="13.83"
         id="87" />
    </clipPath>
  </defs>
  <g
     style="shape-rendering:auto"
     id="root_group-3"
     transform="matrix(1.4928972,0,0,1.4928972,132.60048,62.45069)">
    <line
       y1="19"
       style="opacity:1;fill:none;stroke:#a9a9a9;stroke-width:1;stroke-linecap:butt;stroke-linejoin:miter;stroke-miterlimit:9"
       id="50"
       x2="160"
       y2="19"
       x1="118" />
    <line
       y1="19"
       style="opacity:1;fill:none;stroke:#a9a9a9;stroke-width:1;stroke-linecap:butt;stroke-linejoin:miter;stroke-miterlimit:9"
       id="51"
       x2="80"
       y2="19"
       x1="38" />
    <line
       y1="99"
       style="opacity:1;fill:none;stroke:#a9a9a9;stroke-width:1;stroke-linecap:butt;stroke-linejoin:miter;stroke-miterlimit:9"
       id="52"
       x2="80"
       y2="19"
       x1="38" />
    <circle
       id="53"
       cy="15"
       cx="15"
       transform="translate(164,4)"
       style="opacity:1;fill:#449adf;stroke:none"
       r="15" />
    <path
       style="opacity:1;fill:none;stroke:#ffffff;stroke-width:2;stroke-linecap:butt;stroke-linejoin:miter;stroke-miterlimit:9"
       transform="translate(164,4)"
       id="54"
       d="M 20.824,23.115 V 7.098999 M 17.3572,17.48 v -4.7461 m -3.4668,8.4707 V 9.009602 M 10.4236,18.6248 V 11.5896 M 6.9568,16.3923 V 13.822" />
    <text
       id="55"
       x="164"
       y="39"
       style="font-size:11px;font-family:'Microsoft Sans Serif';opacity:1;fill:#000000;stroke:none"
       clip-path="url(#57_text_clipper)"><tspan
         dy="8.25pt"
         id="59">Concat</tspan></text>
    <circle
       id="61"
       cy="15"
       cx="15"
       transform="translate(84,4)"
       style="opacity:1;fill:#eec04b;stroke:none"
       r="15" />
    <path
       style="opacity:1;fill:#ffffff;fill-rule:evenodd;stroke:none"
       transform="translate(84,4)"
       id="62"
       d="m 12.246,6.0137 v 0.00586 c -0.18794,7e-4 -0.35129,0.020875 -0.47852,0.046875 -0.89879,0.286301 -0.87117,0.86794 -1.8906,1.6191 -1.013501,0.578801 -1.5235,0.13438 -2.2617,0.73438 -0.73673,0.5956 -0.22226,1.962596 -0.53125,2.228496 -0.30671,0.5316 -1.2584,1.0063 -1.4316,1.6777 -0.14317,0.8587 0.38958,1.4709 0.36914,2.207 0.0614,0.6133 -0.6102,0.96178 -0.51367,1.459 0.28922,0.8121 0.84658,1.3001 1.1094,1.5254 0.046151,0.032 0.082828,0.08099 0.097656,0.08399 0.075857,0.1905 0.14373,0.38495 0.24023,0.56445 -0.00548,-0.026 -0.00651,-0.05213 -0.011719,-0.07813 0.054861,0.2176 0.11171,0.43619 0.189449,0.65039 1.5503,3.3608 5.681304,5.9479 10.209004,5.3789 2.1992,-0.2694 5.4826,-1.7854 6.8242,-5.3789 -0.94558,0.8485 -2.6345,1.586 -3.3887,1.6426 2.5527,-1.2757 3.9298,-3.4434 3.54299,-6.4062 -0.52877,1.2588 -1.2269,2.2267 -2.0996,2.8906 1.8538,-2.8897 1.5362,-4.3839 0.16407,-6.0254 0.98137,2.699 -0.28759,5.6945 -3.0527,7.8242 1.1203,0.1214 2.18449,-0.14787 3.1699,-0.95117 -1.4888,1.6607 -3.3523,2.4955 -5.4883,2.7227 1.0199,0.867 2.0045,1.259 2.9453,1.0918 -2.6144,0.7215 -4.8042,-0.07306 -7.4688,-2.7266 -0.13948,0.7143 0.61496,1.8268 1.3926,2.5371 -4.509502,-1.955 -4.906603,-8.042 0.58594,-9.5449 0.0033,0 0.0065,9e-4 0.0098,0 3.2713,1.9138 7.3868,1.7879 7.5723,0.55078 0.45807,-1.4829 -2.0857,-4.538497 -5.8887,-5.335897 -0.70028,-0.1367 -1.3698,-0.190479 -2.0078,-0.17188 0.01278,0 0.0243,2.39e-4 0.03711,-0.00977 -0.6074,-0.6489 -1.3815,-0.8145 -1.9453,-0.8125 z m 4.93169,3.033178 c 0.54604,0 1.0449,0.49697 1.0449,1.043002 0,0.5461 -0.49888,1.043 -1.0449,1.043 -0.54604,0 -1.043,-0.49687 -1.043,-1.043 5e-5,-0.546001 0.49693,-1.043102 1.043,-1.043002 z" />
    <text
       id="63"
       x="84"
       y="39"
       style="font-size:11px;font-family:'Microsoft Sans Serif';opacity:1;fill:#000000;stroke:none"
       clip-path="url(#65_text_clipper)"><tspan
         dy="8.25pt"
         id="67">BufferTrigger</tspan></text>
    <path
       d="m 31.179,5.2 c 3.8195,5.8918 3.8024,13.482 -0.04348,19.357"
       style="opacity:1;fill:none;stroke:#a9a9a9;stroke-width:2;stroke-linecap:butt;stroke-linejoin:miter;stroke-miterlimit:9"
       transform="translate(4,4)"
       id="69" />
    <circle
       id="70"
       cy="15"
       cx="15"
       transform="translate(4,4)"
       style="opacity:1;fill:#5bb27e;stroke:none"
       r="15" />
    <path
       style="opacity:1;fill:#ffffff;fill-rule:evenodd;stroke:none"
       transform="translate(4,4)"
       id="71"
       d="m 15.262,7.0869 c -0.2283,0.01 -0.45306,0.096 -0.62501,0.2467 l -4.2353,3.6596 h -3.8981 c -0.52306,0 -1.0007,0.472 -1.0033,0.9951 v 5.0248 c -0.00169,0.5258 0.47752,1.005 1.0033,1.0033 h 3.8405 l 4.2929,3.7172 c 0.57605,0.4964 1.6523,0 1.653,-0.7566 V 8.089999 c 0.0019,-0.5341 -0.49405,-1.0182 -1.028,-1.0033 z" />
    <path
       style="opacity:1;fill:#ffffff;fill-rule:evenodd;stroke:none"
       transform="translate(4,4)"
       id="72"
       d="m 19.242,11.136 c 0.61796,0.9741 0.98242,2.1373 0.98242,3.379 0,1.2228 -0.35621,2.3677 -0.95703,3.332 -0.69427,1.173 -2.4427,0.083 -1.6953,-1.0567 0.41447,-0.6651 0.6543,-1.438 0.6543,-2.2753 0,-0.852 -0.24612,-1.6375 -0.67188,-2.3086 -0.4384,-0.6717 0.05352,-1.5601 0.85547,-1.545 0.34004,0.01 0.65354,0.1851 0.83203,0.4746 z" />
    <path
       style="opacity:1;fill:#ffffff;fill-rule:evenodd;stroke:none"
       transform="translate(4,4)"
       id="73"
       d="m 21.92,7.5284 c 1.5368,1.9288 2.459,4.3789 2.459,7.0352 0,2.638 -0.91023,5.0731 -2.4297,6.9961 -0.82559,1.0456 -2.394,-0.1927 -1.5684,-1.2383 1.2527,-1.5854 2,-3.5784 2,-5.7578 0,-2.195 -0.75645,-4.2008 -2.0234,-5.791 -0.53829,-0.656 -0.06534,-1.642 0.7832,-1.6328 0.30552,0 0.59262,0.1467 0.7793,0.3886 z" />
    <text
       id="74"
       x="4"
       y="39"
       style="font-size:11px;font-family:'Microsoft Sans Serif';opacity:1;fill:#000000;stroke:none"
       clip-path="url(#76_text_clipper)"><tspan
         dy="8.25pt"
         id="78">AudioCapture</tspan></text>
    <path
       d="m 31.179,5.2 c 3.8195,5.8918 3.8024,13.482 -0.04348,19.357"
       style="opacity:1;fill:none;stroke:#a9a9a9;stroke-width:2;stroke-linecap:butt;stroke-linejoin:miter;stroke-miterlimit:9"
       transform="translate(4,84)"
       id="80" />
    <circle
       id="81"
       cy="15"
       cx="15"
       transform="translate(4,84)"
       style="opacity:1;fill:#5bb27e;stroke:none"
       r="15" />
    <path
       style="opacity:1;fill:#ffffff;fill-rule:evenodd;stroke:none"
       transform="translate(4,84)"
       id="82"
       d="M 8.5404,18.526 C 8.154759,18.14036 8.426559,17.3734 8.7512,17.0487 9.0693,16.7306 9.8857,16.65478 10.3397,17.03595 l 2.1904,1.7693 0.29084,-9.141104 c 0,-0.358289 0.60377,-0.924269 1.2316,-0.924269 0.74617,0 1.3151,0.576219 1.3151,0.95549 l 0.19096,5.347903 4.5059,1.703 c 0.18583,0.06373 0.43094,0.24909 0.43068,0.47598 l 0.0029,3.8276 -1.3849,2.3297 v 1.138 h -5.881 v -1.138 z" />
    <path
       style="opacity:1;fill:none;stroke:#ffffff;stroke-width:2;stroke-linecap:butt;stroke-linejoin:miter;stroke-miterlimit:9"
       transform="translate(4,84)"
       id="83"
       d="m 10.482,12.156 c -1.418399,-2.2682 0.09104,-5.5872 2.7329,-6.0086 2.6015,-0.62394 5.2683,1.8624 4.8283,4.5011 l -0.06627,0.37741" />
    <text
       id="84"
       x="4"
       y="119"
       style="font-size:11px;font-family:'Microsoft Sans Serif';opacity:1;fill:#000000;stroke:none"
       clip-path="url(#86_text_clipper)"><tspan
         dy="8.25pt"
         id="88">KeyDown</tspan></text>
  </g>
</svg>
