<?xml version="1.0" encoding="UTF-8" standalone="no"?>
<svg
   width="237.40239"
   height="453.5433"
   id="SvgGdi_output"
   version="1.1"
   sodipodi:docname="subjects-publish-simple.svg"
   inkscape:version="1.1.2 (b8e25be833, 2022-02-05)"
   viewBox="0 0 118.70119 226.77165"
   xmlns:inkscape="http://www.inkscape.org/namespaces/inkscape"
   xmlns:sodipodi="http://sodipodi.sourceforge.net/DTD/sodipodi-0.dtd"
   xmlns="http://www.w3.org/2000/svg"
   xmlns:svg="http://www.w3.org/2000/svg"
   xmlns:rdf="http://www.w3.org/1999/02/22-rdf-syntax-ns#"
   xmlns:cc="http://creativecommons.org/ns#"
   xmlns:dc="http://purl.org/dc/elements/1.1/">
  <metadata
     id="metadata71">
    <rdf:RDF>
      <cc:Work
         rdf:about="">
        <dc:format>image/svg+xml</dc:format>
        <dc:type
           rdf:resource="http://purl.org/dc/dcmitype/StillImage" />
      </cc:Work>
    </rdf:RDF>
  </metadata>
  <sodipodi:namedview
     pagecolor="#ffffff"
     bordercolor="#666666"
     borderopacity="1"
     objecttolerance="10"
     gridtolerance="10"
     guidetolerance="10"
     inkscape:pageopacity="0"
     inkscape:pageshadow="2"
     inkscape:window-width="2560"
     inkscape:window-height="1334"
     id="namedview69"
     showgrid="false"
     fit-margin-top="0"
     fit-margin-left="0"
     fit-margin-right="0"
     fit-margin-bottom="0"
     inkscape:zoom="2.1034472"
     inkscape:cx="58.47544"
     inkscape:cy="224.39356"
     inkscape:window-x="-11"
     inkscape:window-y="-11"
     inkscape:window-maximized="1"
     inkscape:current-layer="SvgGdi_output"
     scale-x="0.5"
     inkscape:pagecheckerboard="0" />
  <defs
     id="clips_hatches_and_gradients">
    <clipPath
       id="409_text_clipper">
      <rect
         x="166"
         y="76"
         width="150.46001"
         height="26.389999"
         id="410" />
    </clipPath>
    <clipPath
       id="421_text_clipper">
      <rect
         x="166"
         y="236"
         width="134.53"
         height="26.389999"
         id="422" />
    </clipPath>
    <clipPath
       id="433_text_clipper">
      <rect
         x="166"
         y="396"
         width="103.3"
         height="26.389999"
         id="434" />
    </clipPath>
    <clipPath
       id="445_text_clipper">
      <rect
         x="6"
         y="76"
         width="83.940002"
         height="52.790001"
         id="446" />
    </clipPath>
    <clipPath
       id="451_text_clipper">
      <rect
         x="6"
         y="99.769997"
         width="83.940002"
         height="52.790001"
         id="452" />
    </clipPath>
    <clipPath
       id="464_text_clipper">
      <rect
         x="6"
         y="236"
         width="103.3"
         height="52.790001"
         id="465" />
    </clipPath>
    <clipPath
       id="470_text_clipper">
      <rect
         x="6"
         y="259.76999"
         width="103.3"
         height="52.790001"
         id="471" />
    </clipPath>
    <clipPath
       id="483_text_clipper">
      <rect
         x="6"
         y="396"
         width="103.3"
         height="52.790001"
         id="484" />
    </clipPath>
    <clipPath
       id="489_text_clipper">
      <rect
         x="6"
         y="419.76999"
         width="103.3"
         height="52.790001"
         id="490" />
    </clipPath>
    <clipPath
       id="532_text_clipper">
      <rect
         x="126"
         y="58.5"
         width="112.85"
         height="19.799999"
         id="533" />
    </clipPath>
    <clipPath
       id="541_text_clipper">
      <rect
         x="126"
         y="178.5"
         width="100.9"
         height="19.799999"
         id="542" />
    </clipPath>
    <clipPath
       id="550_text_clipper">
      <rect
         x="126"
         y="298.5"
         width="77.480003"
         height="19.799999"
         id="551" />
    </clipPath>
    <clipPath
       id="560_text_clipper">
      <rect
         x="6"
         y="58.5"
         width="62.950001"
         height="39.59"
         id="561" />
    </clipPath>
    <clipPath
       id="566_text_clipper">
      <rect
         x="6"
         y="76.330002"
         width="62.950001"
         height="39.59"
         id="567" />
    </clipPath>
    <clipPath
       id="576_text_clipper">
      <rect
         x="6"
         y="178.5"
         width="77.480003"
         height="39.59"
         id="577" />
    </clipPath>
    <clipPath
       id="582_text_clipper">
      <rect
         x="6"
         y="196.33"
         width="77.480003"
         height="39.59"
         id="583" />
    </clipPath>
    <clipPath
       id="592_text_clipper">
      <rect
         x="6"
         y="298.5"
         width="77.480003"
         height="39.59"
         id="593" />
    </clipPath>
    <clipPath
       id="598_text_clipper">
      <rect
         x="6"
         y="316.32999"
         width="77.480003"
         height="39.59"
         id="599" />
    </clipPath>
    <clipPath
       id="256_text_clipper">
      <rect
         x="84"
         y="39"
         width="41.52"
         height="27.65"
         id="257" />
    </clipPath>
    <clipPath
       id="262_text_clipper">
      <rect
         x="84"
         y="51.450001"
         width="41.52"
         height="27.65"
         id="263" />
    </clipPath>
    <clipPath
       id="271_text_clipper">
      <rect
         x="84"
         y="119"
         width="70.470001"
         height="13.83"
         id="272" />
    </clipPath>
    <clipPath
       id="280_text_clipper">
      <rect
         x="84"
         y="199"
         width="54.110001"
         height="13.83"
         id="281" />
    </clipPath>
    <clipPath
       id="290_text_clipper">
      <rect
         x="4"
         y="39"
         width="43.970001"
         height="27.65"
         id="291" />
    </clipPath>
    <clipPath
       id="296_text_clipper">
      <rect
         x="4"
         y="51.450001"
         width="43.970001"
         height="27.65"
         id="297" />
    </clipPath>
    <clipPath
       id="306_text_clipper">
      <rect
         x="4"
         y="119"
         width="54.110001"
         height="27.65"
         id="307" />
    </clipPath>
    <clipPath
       id="312_text_clipper">
      <rect
         x="4"
         y="131.45"
         width="54.110001"
         height="27.65"
         id="313" />
    </clipPath>
    <clipPath
       id="322_text_clipper">
      <rect
         x="4"
         y="199"
         width="54.110001"
         height="27.65"
         id="323" />
    </clipPath>
    <clipPath
       id="328_text_clipper">
      <rect
         x="4"
         y="211.45"
         width="54.110001"
         height="27.65"
         id="329" />
    </clipPath>
  </defs>
  <text
     xml:space="preserve"
     style="font-size:10px;line-height:1.25;font-family:sans-serif;letter-spacing:0px;word-spacing:0px;fill:#000000;stroke-width:0.5"
     x="23.301769"
     y="19.218113"
     id="text225"><tspan
       sodipodi:role="line"
       id="tspan223"
       x="23.301769"
       y="19.218113">Subjects</tspan><tspan
       sodipodi:role="line"
       x="23.301769"
       y="31.718113"
       id="tspan227" /></text>
  <g
     style="shape-rendering:auto"
     id="root_group"
     transform="matrix(0.75000058,0,0,0.75000058,0.24903323,54.532096)">
    <line
       y1="19"
       style="opacity:1;fill:none;stroke:#a9a9a9;stroke-width:1;stroke-linecap:butt;stroke-linejoin:miter;stroke-miterlimit:9"
       id="245"
       x2="80"
       y2="19"
       x1="38" />
    <line
       y1="99"
       style="opacity:1;fill:none;stroke:#a9a9a9;stroke-width:1;stroke-linecap:butt;stroke-linejoin:miter;stroke-miterlimit:9"
       id="246"
       x2="80"
       y2="99"
       x1="38" />
    <line
       y1="179"
       style="opacity:1;fill:none;stroke:#a9a9a9;stroke-width:1;stroke-linecap:butt;stroke-linejoin:miter;stroke-miterlimit:9"
       id="247"
       x2="80"
       y2="179"
       x1="38" />
    <path
       style="opacity:1;fill:none;stroke:#a9a9a9;stroke-width:2;stroke-linecap:butt;stroke-linejoin:miter;stroke-miterlimit:9"
       transform="translate(84,4)"
       id="248"
       d="M 10.158,33.2 C 3.4054,31.7591 -1.861,26.4692 -3.271,19.71" />
    <circle
       id="249"
       cy="15"
       cx="15"
       transform="translate(84,4)"
       style="opacity:1;fill:#9b5bb3;stroke:none"
       r="15" />
    <path
       d="m 11.656,8.2 0.34375,0.5 4.3125,6.0937 -4.6562,6.625 -0.375,0.5 h 3.4688 l 0.09375,-0.1563 3.1562,-4.75 0.46875,0.6876 2.6875,4.0624 0.09375,0.1563 h 3.5 l -0.34375,-0.5 -4.75,-6.75 4.4062,-5.968703 0.34375,-0.5 h -3.4062 l -0.09375,0.125 -2.2188,3.093703 c -0.22474,0.3098 -0.46392,0.6875 -0.71875,1.0625 -0.19804,-0.3265 -0.38173,-0.6388 -0.65625,-1.0625 l -2.0312,-3.062503 -0.09375,-0.1562 h -3.5312 z"
       style="opacity:1;fill:#ffffff;fill-rule:evenodd;stroke:none"
       transform="translate(84,4)"
       id="250" />
    <path
       style="opacity:1;fill:none;stroke:#ffffff;stroke-width:1.2496;stroke-linecap:butt;stroke-linejoin:miter;stroke-miterlimit:9"
       transform="translate(84,4)"
       id="251"
       d="m 7.8593,10.494 1.0361,-0.84263 4.1235,5.0704 -1.0303,0.83793" />
    <path
       style="opacity:1;fill:none;stroke:#ffffff;stroke-width:1.2496;stroke-linecap:butt;stroke-linejoin:miter;stroke-miterlimit:9"
       transform="translate(84,4)"
       id="252"
       d="M 5.1002,16.975 7.6877,14.8707" />
    <path
       style="opacity:1;fill:#ffffff;fill-rule:evenodd;stroke:none"
       transform="translate(84,4)"
       id="253"
       d="M 8.8501,16.342 6.484699,13.4335 10.1863,12.8393 9.518199,14.5907 Z" />
    <text
       id="254"
       x="84"
       y="39"
       style="font-size:11px;font-family:'Microsoft Sans Serif';opacity:1;fill:#000000;stroke:none"
       clip-path="url(#256_text_clipper)"><tspan
         dy="8.25pt"
         id="258">Publish</tspan></text>
    <text
       id="260"
       x="84"
       y="51.450001"
       style="font-size:11px;font-family:'Microsoft Sans Serif';opacity:1;fill:#000000;stroke:none"
       clip-path="url(#262_text_clipper)"><tspan
         dy="8.25pt"
         id="264">Subject</tspan></text>
    <circle
       id="266"
       cy="15"
       cx="15"
       transform="translate(84,84)"
       style="opacity:1;fill:#449adf;stroke:none"
       r="15" />
    <path
       d="M 18.422,13 13.4357,18.5006 10.8556,15.9868 6.500101,20.5001 23.9571,20.48582 Z"
       style="opacity:1;fill:#ffffff;fill-rule:evenodd;stroke:none"
       transform="translate(84,84)"
       id="267" />
    <circle
       id="268"
       cy="10.96"
       cx="10.92"
       transform="translate(84,84)"
       style="opacity:1;fill:#ffffff;stroke:none"
       r="2.75" />
    <text
       id="269"
       x="84"
       y="119"
       style="font-size:11px;font-family:'Microsoft Sans Serif';opacity:1;fill:#000000;stroke:none"
       clip-path="url(#271_text_clipper)"><tspan
         dy="8.25pt"
         id="273">ConvertColor</tspan></text>
    <circle
       id="275"
       cy="15"
       cx="15"
       transform="translate(84,164)"
       style="opacity:1;fill:#449adf;stroke:none"
       r="15" />
    <path
       d="M 18.422,13 13.4357,18.5006 10.8556,15.9868 6.500101,20.5001 23.9571,20.48582 Z"
       style="opacity:1;fill:#ffffff;fill-rule:evenodd;stroke:none"
       transform="translate(84,164)"
       id="276" />
    <circle
       id="277"
       cy="10.96"
       cx="10.92"
       transform="translate(84,164)"
       style="opacity:1;fill:#ffffff;stroke:none"
       r="2.75" />
    <text
       id="278"
       x="84"
       y="199"
       style="font-size:11px;font-family:'Microsoft Sans Serif';opacity:1;fill:#000000;stroke:none"
       clip-path="url(#280_text_clipper)"><tspan
         dy="8.25pt"
         id="282">Threshold</tspan></text>
    <path
       d="m 31.179,5.2 c 3.8195,5.8918 3.8024,13.482 -0.04348,19.357"
       style="opacity:1;fill:none;stroke:#a9a9a9;stroke-width:2;stroke-linecap:butt;stroke-linejoin:miter;stroke-miterlimit:9"
       transform="translate(4,4)"
       id="284" />
    <circle
       id="285"
       cy="15"
       cx="15"
       transform="translate(4,4)"
       style="opacity:1;fill:#5bb27e;stroke:none"
       r="15" />
    <path
       style="opacity:1;fill:#ffffff;fill-rule:evenodd;stroke:none"
       transform="translate(4,4)"
       id="286"
       d="m 23.75,9.1 -4.1913,2.4211 v 6.8726 l 4.1913,2.421 z" />
    <path
       style="opacity:1;fill:#ffffff;fill-rule:evenodd;stroke:none"
       transform="translate(4,4)"
       id="287"
       d="m 8.6927,9.2 h 7.0267 c 1.4706,0 2.6545,1.2337 2.6545,2.7661 v 5.8573 c 0,1.5324 -1.1839,2.7659 -2.6545,2.7659 H 8.692701 c -1.4706,0 -2.6545,-1.2335 -2.6545,-2.7659 v -5.8573 c 0,-1.5324 1.1839,-2.766101 2.6545,-2.766101 z" />
    <text
       id="288"
       x="4"
       y="39"
       style="font-size:11px;font-family:'Microsoft Sans Serif';opacity:1;fill:#000000;stroke:none"
       clip-path="url(#290_text_clipper)"><tspan
         dy="8.25pt"
         id="292">Camera</tspan></text>
    <text
       id="294"
       x="4"
       y="51.450001"
       style="font-size:11px;font-family:'Microsoft Sans Serif';opacity:1;fill:#000000;stroke:none"
       clip-path="url(#296_text_clipper)"><tspan
         dy="8.25pt"
         id="298">Capture</tspan></text>
    <path
       d="m 31.179,5.2 c 3.8195,5.8918 3.8024,13.482 -0.04348,19.357"
       style="opacity:1;fill:none;stroke:#a9a9a9;stroke-width:2;stroke-linecap:butt;stroke-linejoin:miter;stroke-miterlimit:9"
       transform="translate(4,84)"
       id="300" />
    <circle
       id="301"
       cy="15"
       cx="15"
       transform="translate(4,84)"
       style="opacity:1;fill:#5bb27e;stroke:none"
       r="15" />
    <path
       d="m 4.4028,13 0.53067,-1.6734 c 1.2229,0.4401 2.1112,0.8211 2.664901,1.1432 C 7.45224,11.0476 7.37533,10.0696 7.36764,9.5352 H 9.040441 C 9.017365,10.3131 8.92891,11.2873 8.775101,12.4581 9.567261,12.0495 10.4748,11.6723 11.4977,11.3266 L 12.02837,13 c -0.97675,0.3302 -1.9343,0.5502 -2.872599,0.6601 0.46914,0.4165 1.130599,1.1589 1.984299,2.2276 l -1.384399,1.0017 c -0.446081,-0.6207 -0.97291,-1.4653 -1.5805,-2.534 -0.56913,1.1079 -1.069,1.9526 -1.4997,2.534 l -1.3613,-1.0017 c 0.89214,-1.1235 1.5305,-1.8661 1.915,-2.2276 C 6.237041,13.4637 5.294871,13.2437 4.402771,13 Z"
       style="opacity:1;fill:#ffffff;fill-rule:evenodd;stroke:none"
       transform="translate(4,84)"
       id="302" />
    <path
       d="m 11.656,8.2 0.34375,0.5 4.3125,6.0937 -4.6562,6.625 -0.375,0.5 h 3.4688 l 0.09375,-0.1563 3.1562,-4.75 0.46875,0.6876 2.6875,4.0624 0.09375,0.1563 h 3.5 l -0.34375,-0.5 -4.75,-6.75 4.4062,-5.968703 0.34375,-0.5 h -3.4062 l -0.09375,0.125 -2.2188,3.093703 c -0.22474,0.3098 -0.46392,0.6875 -0.71875,1.0625 -0.19804,-0.3265 -0.38173,-0.6388 -0.65625,-1.0625 l -2.0312,-3.062503 -0.09375,-0.1562 h -3.5312 z"
       style="opacity:1;fill:#ffffff;fill-rule:evenodd;stroke:none"
       transform="translate(4,84)"
       id="303" />
    <text
       id="304"
       x="4"
       y="119"
       style="font-size:11px;font-family:'Microsoft Sans Serif';opacity:1;fill:#000000;stroke:none"
       clip-path="url(#306_text_clipper)"><tspan
         dy="8.25pt"
         id="308">Subscribe</tspan></text>
    <text
       id="310"
       x="4"
       y="131.45"
       style="font-size:11px;font-family:'Microsoft Sans Serif';opacity:1;fill:#000000;stroke:none"
       clip-path="url(#312_text_clipper)"><tspan
         dy="8.25pt"
         id="314">Subject</tspan></text>
    <path
       d="m 31.179,5.2 c 3.8195,5.8918 3.8024,13.482 -0.04348,19.357"
       style="opacity:1;fill:none;stroke:#a9a9a9;stroke-width:2;stroke-linecap:butt;stroke-linejoin:miter;stroke-miterlimit:9"
       transform="translate(4,164)"
       id="316" />
    <circle
       id="317"
       cy="15"
       cx="15"
       transform="translate(4,164)"
       style="opacity:1;fill:#5bb27e;stroke:none"
       r="15" />
    <path
       d="m 4.4028,13 0.53067,-1.6734 c 1.2229,0.4401 2.1112,0.8211 2.664901,1.1432 C 7.45224,11.0476 7.37533,10.0696 7.36764,9.5352 H 9.040441 C 9.017365,10.3131 8.92891,11.2873 8.775101,12.4581 9.567261,12.0495 10.4748,11.6723 11.4977,11.3266 L 12.02837,13 c -0.97675,0.3302 -1.9343,0.5502 -2.872599,0.6601 0.46914,0.4165 1.130599,1.1589 1.984299,2.2276 l -1.384399,1.0017 c -0.446081,-0.6207 -0.97291,-1.4653 -1.5805,-2.534 -0.56913,1.1079 -1.069,1.9526 -1.4997,2.534 l -1.3613,-1.0017 c 0.89214,-1.1235 1.5305,-1.8661 1.915,-2.2276 C 6.237041,13.4637 5.294871,13.2437 4.402771,13 Z"
       style="opacity:1;fill:#ffffff;fill-rule:evenodd;stroke:none"
       transform="translate(4,164)"
       id="318" />
    <path
       d="m 11.656,8.2 0.34375,0.5 4.3125,6.0937 -4.6562,6.625 -0.375,0.5 h 3.4688 l 0.09375,-0.1563 3.1562,-4.75 0.46875,0.6876 2.6875,4.0624 0.09375,0.1563 h 3.5 l -0.34375,-0.5 -4.75,-6.75 4.4062,-5.968703 0.34375,-0.5 h -3.4062 l -0.09375,0.125 -2.2188,3.093703 c -0.22474,0.3098 -0.46392,0.6875 -0.71875,1.0625 -0.19804,-0.3265 -0.38173,-0.6388 -0.65625,-1.0625 l -2.0312,-3.062503 -0.09375,-0.1562 h -3.5312 z"
       style="opacity:1;fill:#ffffff;fill-rule:evenodd;stroke:none"
       transform="translate(4,164)"
       id="319" />
    <text
       id="320"
       x="4"
       y="199"
       style="font-size:11px;font-family:'Microsoft Sans Serif';opacity:1;fill:#000000;stroke:none"
       clip-path="url(#322_text_clipper)"><tspan
         dy="8.25pt"
         id="324">Subscribe</tspan></text>
    <text
       id="326"
       x="4"
       y="211.45"
       style="font-size:11px;font-family:'Microsoft Sans Serif';opacity:1;fill:#000000;stroke:none"
       clip-path="url(#328_text_clipper)"><tspan
         dy="8.25pt"
         id="330">Subject</tspan></text>
  </g>
</svg>
