<?xml version="1.0" encoding="UTF-8" standalone="no"?>
<svg
   width="150mm"
   height="86.888481mm"
   id="SvgGdi_output"
   version="1.1"
   sodipodi:docname="subjects-scope.svg"
   inkscape:version="1.1.2 (b8e25be833, 2022-02-05)"
   xmlns:inkscape="http://www.inkscape.org/namespaces/inkscape"
   xmlns:sodipodi="http://sodipodi.sourceforge.net/DTD/sodipodi-0.dtd"
   xmlns="http://www.w3.org/2000/svg"
   xmlns:svg="http://www.w3.org/2000/svg"
   xmlns:rdf="http://www.w3.org/1999/02/22-rdf-syntax-ns#"
   xmlns:cc="http://creativecommons.org/ns#"
   xmlns:dc="http://purl.org/dc/elements/1.1/">
  <metadata
     id="metadata44">
    <rdf:RDF>
      <cc:Work
         rdf:about="">
        <dc:format>image/svg+xml</dc:format>
        <dc:type
           rdf:resource="http://purl.org/dc/dcmitype/StillImage" />
      </cc:Work>
    </rdf:RDF>
  </metadata>
  <sodipodi:namedview
     pagecolor="#ffffff"
     bordercolor="#666666"
     borderopacity="1"
     objecttolerance="10"
     gridtolerance="10"
     guidetolerance="10"
     inkscape:pageopacity="0"
     inkscape:pageshadow="2"
     inkscape:window-width="2560"
     inkscape:window-height="1334"
     id="namedview42"
     showgrid="false"
     units="mm"
     inkscape:zoom="1.6831189"
     inkscape:cx="257.85463"
     inkscape:cy="83.178913"
     inkscape:window-x="-11"
     inkscape:window-y="-11"
     inkscape:window-maximized="1"
     inkscape:current-layer="SvgGdi_output"
     inkscape:pagecheckerboard="0"
     inkscape:document-units="mm" />
  <defs
     id="clips_hatches_and_gradients">
    <clipPath
       id="308_text_clipper">
      <rect
         x="246"
         y="58.5"
         width="56.650002"
         height="19.799999"
         id="309" />
    </clipPath>
    <clipPath
       id="316_text_clipper">
      <rect
         x="126"
         y="58.5"
         width="74.760002"
         height="39.59"
         id="317" />
    </clipPath>
    <clipPath
       id="322_text_clipper">
      <rect
         x="126"
         y="76.330002"
         width="74.760002"
         height="39.59"
         id="323" />
    </clipPath>
    <clipPath
       id="333_text_clipper">
      <rect
         x="6"
         y="58.5"
         width="104.53"
         height="19.799999"
         id="334" />
    </clipPath>
    <clipPath
       id="343_text_clipper">
      <rect
         x="6"
         y="178.5"
         width="74.669998"
         height="19.799999"
         id="344" />
    </clipPath>
    <clipPath
       id="57_text_clipper">
      <rect
         x="164"
         y="39"
         width="39.560001"
         height="13.83"
         id="58" />
    </clipPath>
    <clipPath
       id="65_text_clipper">
      <rect
         x="84"
         y="39"
         width="69.839996"
         height="13.83"
         id="66" />
    </clipPath>
    <clipPath
       id="76_text_clipper">
      <rect
         x="4"
         y="39"
         width="73.010002"
         height="13.83"
         id="77" />
    </clipPath>
    <clipPath
       id="86_text_clipper">
      <rect
         x="4"
         y="119"
         width="52.150002"
         height="13.83"
         id="87" />
    </clipPath>
    <clipPath
       id="239_text_clipper">
      <rect
         x="84"
         y="39"
         width="58.450001"
         height="13.83"
         id="240" />
    </clipPath>
    <clipPath
       id="250_text_clipper">
      <rect
         x="4"
         y="39"
         width="65.389999"
         height="13.83"
         id="251" />
    </clipPath>
  </defs>
  <g
     style="shape-rendering:auto"
     id="root_group"
     transform="matrix(1.4999872,0,0,1.4999872,178.78055,123.01776)">
    <circle
       id="232"
       cy="15"
       cx="15"
       transform="translate(84,4)"
       style="opacity:1;fill:#eec04b;stroke:none"
       r="15" />
    <circle
       id="233"
       cy="15"
       cx="15"
       transform="translate(84,4)"
       style="opacity:1;fill:none;stroke:#a9a9a9;stroke-width:2;stroke-linecap:butt;stroke-linejoin:miter;stroke-miterlimit:9"
       r="15" />
    <circle
       id="234"
       cy="9.0600004"
       cx="15.01"
       transform="translate(84,4)"
       style="opacity:1;fill:#ffffff;stroke:none"
       r="3.5" />
    <circle
       id="235"
       cy="18.49"
       cx="9.1199999"
       transform="translate(84,4)"
       style="opacity:1;fill:#ffffff;stroke:none"
       r="3.5" />
    <circle
       id="236"
       cy="18.459999"
       cx="20.879999"
       transform="translate(84,4)"
       style="opacity:1;fill:#ffffff;stroke:none"
       r="3.5" />
    <text
       id="237"
       x="84"
       y="39"
       style="font-size:11px;font-family:'Microsoft Sans Serif';opacity:1;fill:#000000;stroke:none"
       clip-path="url(#239_text_clipper)"><tspan
         dy="8.25pt"
         id="241">NewScope</tspan></text>
    <circle
       id="243"
       cy="15"
       cx="15"
       transform="translate(4,4)"
       style="opacity:1;fill:#eec04b;stroke:none"
       r="15" />
    <path
       style="opacity:1;fill:none;stroke:#a9a9a9;stroke-width:2;stroke-linecap:butt;stroke-linejoin:miter;stroke-miterlimit:9"
       transform="translate(4,4)"
       id="244"
       d="M 1.5363,7.8 C 1.99103,6.9385 2.52798,6.1205 3.1403,5.3587 3.7527,4.5967 4.4403,3.8909 5.1968,3.254 5.95315,2.617 6.7782,2.049 7.665299,1.5627 m -7.2114998,17.937 c -0.31025,-1.0041 -0.51093997,-2.0162 -0.6102499,-3.0228 -0.098748,-1.0068 -0.095194,-2.0085 0.003869,-2.9925 0.09923995,-0.9837 0.29401,-1.9497 0.57773,-2.8851 m 7.4671996,17.8 c -0.86139,-0.4546 -1.6795,-0.9916 -2.4414,-1.6039 -0.76194,-0.6123 -1.4677,-1.3 -2.1046,-2.0564 -0.63679,-0.7564 -1.2048,-1.5815 -1.6912,-2.4686 M 19.49415,29.4993 c -1.0042,0.3103 -2.0163,0.511 -3.0229,0.6103 -1.0068,0.0988 -2.0084,0.0953 -2.9923,-0.0078 -0.98388,-0.099 -1.9498,-0.2939 -2.8853,-0.5776 m 17.87,-7.4249 c -0.45473,0.8613 -0.99165,1.6795 -1.604,2.4414 -0.61227,0.7619 -1.3002,1.4677 -2.0565,2.1046 -0.75635,0.6369 -1.5814,1.2049 -2.4685,1.6912 m 7.211,-17.837 c 0.31029,1.0042 0.51094,2.0162 0.61029,3.0229 0.09887,1.0068 0.0952,2.0086 -0.0039,2.9923 -0.0992,0.9839 -0.29397,1.9499 -0.57769,2.8853 M 22.10769,1.499998 c 0.86139,0.4547 1.67951,0.9917 2.44141,1.6039 0.76194,0.6124 1.4677,1.3002 2.10459,2.0565 0.63683,0.7565 1.2049,1.5815 1.6913,2.4687 m -17.84,-7.2291003 c 1.0042,-0.31029998 2.0161,-0.5109 3.0228,-0.6103 1.0069,-0.0987 2.0084,-0.0952 2.9923,0 0.98392,0.0992 1.9499,0.29400001 2.8854,0.5777" />
    <circle
       id="245"
       cy="9.0600004"
       cx="15.01"
       transform="translate(4,4)"
       style="opacity:1;fill:#ffffff;stroke:none"
       r="3.5" />
    <circle
       id="246"
       cy="18.49"
       cx="9.1199999"
       transform="translate(4,4)"
       style="opacity:1;fill:#ffffff;stroke:none"
       r="3.5" />
    <circle
       id="247"
       cy="18.459999"
       cx="20.879999"
       transform="translate(4,4)"
       style="opacity:1;fill:#ffffff;stroke:none"
       r="3.5" />
    <text
       id="248"
       x="4"
       y="39"
       style="font-size:11px;font-family:'Microsoft Sans Serif';opacity:1;fill:#000000;stroke:none"
       clip-path="url(#250_text_clipper)"><tspan
         dy="8.25pt"
         id="252">SameScope</tspan></text>
  </g>
</svg>
