<?xml version="1.0" encoding="UTF-8" standalone="no"?>
<svg
   width="150mm"
   height="105.32222mm"
   id="SvgGdi_output"
   version="1.1"
   sodipodi:docname="windowtrigger-recordclip.svg"
   inkscape:version="1.1.2 (b8e25be833, 2022-02-05)"
   xmlns:inkscape="http://www.inkscape.org/namespaces/inkscape"
   xmlns:sodipodi="http://sodipodi.sourceforge.net/DTD/sodipodi-0.dtd"
   xmlns="http://www.w3.org/2000/svg"
   xmlns:svg="http://www.w3.org/2000/svg"
   xmlns:rdf="http://www.w3.org/1999/02/22-rdf-syntax-ns#"
   xmlns:cc="http://creativecommons.org/ns#"
   xmlns:dc="http://purl.org/dc/elements/1.1/">
  <metadata
     id="metadata51">
    <rdf:RDF>
      <cc:Work
         rdf:about="">
        <dc:format>image/svg+xml</dc:format>
        <dc:type
           rdf:resource="http://purl.org/dc/dcmitype/StillImage" />
      </cc:Work>
    </rdf:RDF>
  </metadata>
  <sodipodi:namedview
     pagecolor="#ffffff"
     bordercolor="#666666"
     borderopacity="1"
     objecttolerance="10"
     gridtolerance="10"
     guidetolerance="10"
     inkscape:pageopacity="0"
     inkscape:pageshadow="2"
     inkscape:window-width="2560"
     inkscape:window-height="1334"
     id="namedview49"
     showgrid="false"
     units="mm"
     inkscape:zoom="2.3802896"
     inkscape:cx="226.86315"
     inkscape:cy="165.52608"
     inkscape:window-x="-11"
     inkscape:window-y="-11"
     inkscape:window-maximized="1"
     inkscape:current-layer="SvgGdi_output"
     inkscape:pagecheckerboard="0"
     inkscape:document-units="mm" />
  <defs
     id="clips_hatches_and_gradients">
    <clipPath
       id="141_text_clipper">
      <rect
         x="246"
         y="58.5"
         width="90.099998"
         height="19.799999"
         id="142" />
    </clipPath>
    <clipPath
       id="149_text_clipper">
      <rect
         x="126"
         y="58.5"
         width="74.760002"
         height="39.59"
         id="150" />
    </clipPath>
    <clipPath
       id="155_text_clipper">
      <rect
         x="126"
         y="76.330002"
         width="74.760002"
         height="39.59"
         id="156" />
    </clipPath>
    <clipPath
       id="165_text_clipper">
      <rect
         x="6"
         y="58.5"
         width="62.950001"
         height="39.59"
         id="166" />
    </clipPath>
    <clipPath
       id="171_text_clipper">
      <rect
         x="6"
         y="76.330002"
         width="62.950001"
         height="39.59"
         id="172" />
    </clipPath>
    <clipPath
       id="181_text_clipper">
      <rect
         x="6"
         y="178.5"
         width="74.669998"
         height="19.799999"
         id="182" />
    </clipPath>
    <clipPath
       id="198_text_clipper">
      <rect
         x="246"
         y="58.5"
         width="72.029999"
         height="39.59"
         id="199" />
    </clipPath>
    <clipPath
       id="204_text_clipper">
      <rect
         x="246"
         y="76.330002"
         width="72.029999"
         height="39.59"
         id="205" />
    </clipPath>
    <clipPath
       id="214_text_clipper">
      <rect
         x="126"
         y="58.5"
         width="90.169998"
         height="19.799999"
         id="215" />
    </clipPath>
    <clipPath
       id="225_text_clipper">
      <rect
         x="6"
         y="58.5"
         width="65.669998"
         height="19.799999"
         id="226" />
    </clipPath>
    <clipPath
       id="114_text_clipper">
      <rect
         x="164"
         y="39"
         width="62.93"
         height="13.83"
         id="115" />
    </clipPath>
    <clipPath
       id="122_text_clipper">
      <rect
         x="84"
         y="39"
         width="44.029999"
         height="27.65"
         id="123" />
    </clipPath>
    <clipPath
       id="128_text_clipper">
      <rect
         x="84"
         y="51.450001"
         width="44.029999"
         height="27.65"
         id="129" />
    </clipPath>
    <clipPath
       id="138_text_clipper">
      <rect
         x="4"
         y="39"
         width="43.970001"
         height="27.65"
         id="139-3" />
    </clipPath>
    <clipPath
       id="144_text_clipper">
      <rect
         x="4"
         y="51.450001"
         width="43.970001"
         height="27.65"
         id="145-4" />
    </clipPath>
    <clipPath
       id="154_text_clipper">
      <rect
         x="4"
         y="119"
         width="52.150002"
         height="13.83"
         id="155" />
    </clipPath>
  </defs>
  <g
     transform="translate(254.48907,203.53971)"
     id="root_group-9">
    <line
       y1="28.5"
       style="fill:none;stroke:#a9a9a9;stroke-width:1.5;stroke-miterlimit:9"
       id="189"
       x2="240"
       y2="28.5"
       x1="177" />
    <line
       y1="28.5"
       style="fill:none;stroke:#a9a9a9;stroke-width:1.5;stroke-miterlimit:9"
       id="190"
       x2="120"
       y2="28.5"
       x1="57" />
    <path
       inkscape:connector-curvature="0"
       d="M 10.158,33.2 C 3.4054,31.7591 -1.861,26.4692 -3.271,19.71"
       style="fill:none;stroke:#a9a9a9;stroke-width:2;stroke-miterlimit:9"
       transform="matrix(1.5,0,0,1.5,246,6)"
       id="191" />
    <circle
       r="15"
       id="192"
       cy="15"
       cx="15"
       transform="matrix(1.5,0,0,1.5,246,6)"
       style="fill:#9b5bb3" />
    <circle
       r="3.5"
       id="193"
       cy="9.0600004"
       cx="15.01"
       transform="matrix(1.5,0,0,1.5,246,6)"
       style="fill:#ffffff" />
    <circle
       r="3.5"
       id="194"
       cy="18.49"
       cx="9.1199999"
       transform="matrix(1.5,0,0,1.5,246,6)"
       style="fill:#ffffff" />
    <circle
       r="3.5"
       id="195"
       cy="18.459999"
       cx="20.879999"
       transform="matrix(1.5,0,0,1.5,246,6)"
       style="fill:#ffffff" />
    <text
       id="196"
       x="246"
       y="58.5"
       style="font-size:15.7467px;font-family:'Microsoft Sans Serif';fill:#000000"
       clip-path="url(#198_text_clipper)"><tspan
         dy="11.81pt"
         id="200">Workflow</tspan></text>
    <text
       id="202"
       x="246"
       y="76.330002"
       style="font-size:15.7467px;font-family:'Microsoft Sans Serif';fill:#000000"
       clip-path="url(#204_text_clipper)"><tspan
         dy="11.81pt"
         id="206">Output</tspan></text>
    <path
       inkscape:connector-curvature="0"
       d="M 10.158,33.2 C 3.4054,31.7591 -1.861,26.4692 -3.271,19.71"
       style="fill:none;stroke:#a9a9a9;stroke-width:2;stroke-miterlimit:9"
       transform="matrix(1.5,0,0,1.5,126,6)"
       id="208" />
    <circle
       r="15"
       id="209"
       cy="15"
       cx="15"
       transform="matrix(1.5,0,0,1.5,126,6)"
       style="fill:#9b5bb3" />
    <path
       inkscape:connector-curvature="0"
       style="fill:#ffffff;fill-rule:evenodd"
       transform="matrix(1.5,0,0,1.5,126,6)"
       id="210"
       d="m 23.75,9.1 -4.1913,2.4211 v 6.8726 l 4.1913,2.421 z" />
    <path
       inkscape:connector-curvature="0"
       style="fill:#ffffff;fill-rule:evenodd"
       transform="matrix(1.5,0,0,1.5,126,6)"
       id="211"
       d="m 8.6927,9.2 h 7.0267 c 1.4706,0 2.6545,1.2337 2.6545,2.7661 v 5.8573 c 0,1.5324 -1.1839,2.7659 -2.6545,2.7659 H 8.692701 c -1.4706,0 -2.6545,-1.2335 -2.6545,-2.7659 v -5.8573 c 0,-1.5324 1.1839,-2.766101 2.6545,-2.766101 z" />
    <text
       id="212"
       x="126"
       y="58.5"
       style="font-size:15.7467px;font-family:'Microsoft Sans Serif';fill:#000000"
       clip-path="url(#214_text_clipper)"><tspan
         dy="11.81pt"
         id="216">VideoWriter</tspan></text>
    <path
       inkscape:connector-curvature="0"
       style="fill:none;stroke:#a9a9a9;stroke-width:2;stroke-miterlimit:9"
       transform="matrix(1.5,0,0,1.5,6,6)"
       id="218"
       d="m 31.179,5.2 c 3.8195,5.8918 3.8024,13.482 -0.04348,19.357" />
    <circle
       r="15"
       id="219"
       cy="15"
       cx="15"
       transform="matrix(1.5,0,0,1.5,6,6)"
       style="fill:#5bb27e" />
    <circle
       r="3.5"
       id="220"
       cy="9.0600004"
       cx="15.01"
       transform="matrix(1.5,0,0,1.5,6,6)"
       style="fill:#ffffff" />
    <circle
       r="3.5"
       id="221"
       cy="18.49"
       cx="9.1199999"
       transform="matrix(1.5,0,0,1.5,6,6)"
       style="fill:#ffffff" />
    <circle
       r="3.5"
       id="222"
       cy="18.459999"
       cx="20.879999"
       transform="matrix(1.5,0,0,1.5,6,6)"
       style="fill:#ffffff" />
    <text
       id="223"
       x="6"
       y="58.5"
       style="font-size:15.7467px;font-family:'Microsoft Sans Serif';fill:#000000"
       clip-path="url(#225_text_clipper)"><tspan
         dy="11.81pt"
         id="227">Source1</tspan></text>
  </g>
  <path
     style="fill:none;stroke:#000000;stroke-dasharray:1, 3"
     d="M 256.35638,123.31482 V 254.98678"
     id="path928"
     inkscape:connector-curvature="0" />
  <path
     style="fill:none;stroke:#000000;stroke-dasharray:1, 3"
     d="M 308.78595,122.64994 557.9153,213.81532"
     id="path930"
     inkscape:connector-curvature="0" />
  <g
     style="shape-rendering:auto"
     id="root_group-6"
     transform="matrix(1.4929521,0,0,1.4929521,15.644923,94.835965)">
    <line
       y1="19"
       style="opacity:1;fill:none;stroke:#a9a9a9;stroke-width:1;stroke-linecap:butt;stroke-linejoin:miter;stroke-miterlimit:9"
       id="103"
       x2="160"
       y2="19"
       x1="118" />
    <line
       y1="19"
       style="opacity:1;fill:none;stroke:#a9a9a9;stroke-width:1;stroke-linecap:butt;stroke-linejoin:miter;stroke-miterlimit:9"
       id="104"
       x2="80"
       y2="19"
       x1="38" />
    <line
       y1="99"
       style="opacity:1;fill:none;stroke:#a9a9a9;stroke-width:1;stroke-linecap:butt;stroke-linejoin:miter;stroke-miterlimit:9"
       id="105"
       x2="80"
       y2="19"
       x1="38" />
    <circle
       id="106"
       cy="15"
       cx="15"
       transform="translate(164,4)"
       style="opacity:1;fill:#eec04b;stroke:none"
       r="15" />
    <circle
       id="107"
       cy="15"
       cx="15"
       transform="translate(164,4)"
       style="opacity:1;fill:none;stroke:#a9a9a9;stroke-width:2;stroke-linecap:butt;stroke-linejoin:miter;stroke-miterlimit:9"
       r="15" />
    <path
       style="opacity:1;fill:none;stroke:#ffffff;stroke-width:2;stroke-linecap:butt;stroke-linejoin:miter;stroke-miterlimit:9"
       transform="translate(164,4)"
       id="108"
       d="m 14.876,5.6408 v 18.382" />
    <circle
       id="109"
       cy="10.2"
       cx="8.4700003"
       transform="translate(164,4)"
       style="opacity:1;fill:#ffffff;stroke:none"
       r="3.4000001" />
    <circle
       id="110"
       cy="10.2"
       cx="21.33"
       transform="translate(164,4)"
       style="opacity:1;fill:#ffffff;stroke:none"
       r="3.4000001" />
    <circle
       id="111"
       cy="19.200001"
       cx="21.33"
       transform="translate(164,4)"
       style="opacity:1;fill:#ffffff;stroke:none"
       r="3.4000001" />
    <text
       id="112"
       x="164"
       y="39"
       style="font-size:11px;font-family:'Microsoft Sans Serif';opacity:1;fill:#000000;stroke:none"
       clip-path="url(#114_text_clipper)"><tspan
         dy="8.25pt"
         id="116">SelectMany</tspan></text>
    <circle
       id="118"
       cy="15"
       cx="15"
       transform="translate(84,4)"
       style="opacity:1;fill:#eec04b;stroke:none"
       r="15" />
    <path
       style="opacity:1;fill:#ffffff;fill-rule:evenodd;stroke:none"
       transform="translate(84,4)"
       id="119"
       d="m 12.246,6.0137 v 0.00586 c -0.18794,7e-4 -0.35129,0.020875 -0.47852,0.046875 -0.89879,0.286301 -0.87117,0.86794 -1.8906,1.6191 -1.013501,0.578801 -1.5235,0.13438 -2.2617,0.73438 -0.73673,0.5956 -0.22226,1.962596 -0.53125,2.228496 -0.30671,0.5316 -1.2584,1.0063 -1.4316,1.6777 -0.14317,0.8587 0.38958,1.4709 0.36914,2.207 0.0614,0.6133 -0.6102,0.96178 -0.51367,1.459 0.28922,0.8121 0.84658,1.3001 1.1094,1.5254 0.046151,0.032 0.082828,0.08099 0.097656,0.08399 0.075857,0.1905 0.14373,0.38495 0.24023,0.56445 -0.00548,-0.026 -0.00651,-0.05213 -0.011719,-0.07813 0.054861,0.2176 0.11171,0.43619 0.189449,0.65039 1.5503,3.3608 5.681304,5.9479 10.209004,5.3789 2.1992,-0.2694 5.4826,-1.7854 6.8242,-5.3789 -0.94558,0.8485 -2.6345,1.586 -3.3887,1.6426 2.5527,-1.2757 3.9298,-3.4434 3.54299,-6.4062 -0.52877,1.2588 -1.2269,2.2267 -2.0996,2.8906 1.8538,-2.8897 1.5362,-4.3839 0.16407,-6.0254 0.98137,2.699 -0.28759,5.6945 -3.0527,7.8242 1.1203,0.1214 2.18449,-0.14787 3.1699,-0.95117 -1.4888,1.6607 -3.3523,2.4955 -5.4883,2.7227 1.0199,0.867 2.0045,1.259 2.9453,1.0918 -2.6144,0.7215 -4.8042,-0.07306 -7.4688,-2.7266 -0.13948,0.7143 0.61496,1.8268 1.3926,2.5371 -4.509502,-1.955 -4.906603,-8.042 0.58594,-9.5449 0.0033,0 0.0065,9e-4 0.0098,0 3.2713,1.9138 7.3868,1.7879 7.5723,0.55078 0.45807,-1.4829 -2.0857,-4.538497 -5.8887,-5.335897 -0.70028,-0.1367 -1.3698,-0.190479 -2.0078,-0.17188 0.01278,0 0.0243,2.39e-4 0.03711,-0.00977 -0.6074,-0.6489 -1.3815,-0.8145 -1.9453,-0.8125 z m 4.93169,3.033178 c 0.54604,0 1.0449,0.49697 1.0449,1.043002 0,0.5461 -0.49888,1.043 -1.0449,1.043 -0.54604,0 -1.043,-0.49687 -1.043,-1.043 5e-5,-0.546001 0.49693,-1.043102 1.043,-1.043002 z" />
    <text
       id="120"
       x="84"
       y="39"
       style="font-size:11px;font-family:'Microsoft Sans Serif';opacity:1;fill:#000000;stroke:none"
       clip-path="url(#122_text_clipper)"><tspan
         dy="8.25pt"
         id="124">Window</tspan></text>
    <text
       id="126"
       x="84"
       y="51.450001"
       style="font-size:11px;font-family:'Microsoft Sans Serif';opacity:1;fill:#000000;stroke:none"
       clip-path="url(#128_text_clipper)"><tspan
         dy="8.25pt"
         id="130-9">Trigger</tspan></text>
    <path
       d="m 31.179,5.2 c 3.8195,5.8918 3.8024,13.482 -0.04348,19.357"
       style="opacity:1;fill:none;stroke:#a9a9a9;stroke-width:2;stroke-linecap:butt;stroke-linejoin:miter;stroke-miterlimit:9"
       transform="translate(4,4)"
       id="132-0" />
    <circle
       id="133-0"
       cy="15"
       cx="15"
       transform="translate(4,4)"
       style="opacity:1;fill:#5bb27e;stroke:none"
       r="15" />
    <path
       style="opacity:1;fill:#ffffff;fill-rule:evenodd;stroke:none"
       transform="translate(4,4)"
       id="134-8"
       d="m 23.75,9.1 -4.1913,2.4211 v 6.8726 l 4.1913,2.421 z" />
    <path
       style="opacity:1;fill:#ffffff;fill-rule:evenodd;stroke:none"
       transform="translate(4,4)"
       id="135-6"
       d="m 8.6927,9.2 h 7.0267 c 1.4706,0 2.6545,1.2337 2.6545,2.7661 v 5.8573 c 0,1.5324 -1.1839,2.7659 -2.6545,2.7659 H 8.692701 c -1.4706,0 -2.6545,-1.2335 -2.6545,-2.7659 v -5.8573 c 0,-1.5324 1.1839,-2.766101 2.6545,-2.766101 z" />
    <text
       id="136-9"
       x="4"
       y="39"
       style="font-size:11px;font-family:'Microsoft Sans Serif';opacity:1;fill:#000000;stroke:none"
       clip-path="url(#138_text_clipper)"><tspan
         dy="8.25pt"
         id="140">Camera</tspan></text>
    <text
       id="142-5"
       x="4"
       y="51.450001"
       style="font-size:11px;font-family:'Microsoft Sans Serif';opacity:1;fill:#000000;stroke:none"
       clip-path="url(#144_text_clipper)"><tspan
         dy="8.25pt"
         id="146-5">Capture</tspan></text>
    <path
       d="m 31.179,5.2 c 3.8195,5.8918 3.8024,13.482 -0.04348,19.357"
       style="opacity:1;fill:none;stroke:#a9a9a9;stroke-width:2;stroke-linecap:butt;stroke-linejoin:miter;stroke-miterlimit:9"
       transform="translate(4,84)"
       id="148" />
    <circle
       id="149"
       cy="15"
       cx="15"
       transform="translate(4,84)"
       style="opacity:1;fill:#5bb27e;stroke:none"
       r="15" />
    <path
       style="opacity:1;fill:#ffffff;fill-rule:evenodd;stroke:none"
       transform="translate(4,84)"
       id="150-8"
       d="M 8.5404,18.526 C 8.154759,18.14036 8.426559,17.3734 8.7512,17.0487 9.0693,16.7306 9.8857,16.65478 10.3397,17.03595 l 2.1904,1.7693 0.29084,-9.141104 c 0,-0.358289 0.60377,-0.924269 1.2316,-0.924269 0.74617,0 1.3151,0.576219 1.3151,0.95549 l 0.19096,5.347903 4.5059,1.703 c 0.18583,0.06373 0.43094,0.24909 0.43068,0.47598 l 0.0029,3.8276 -1.3849,2.3297 v 1.138 h -5.881 v -1.138 z" />
    <path
       style="opacity:1;fill:none;stroke:#ffffff;stroke-width:2;stroke-linecap:butt;stroke-linejoin:miter;stroke-miterlimit:9"
       transform="translate(4,84)"
       id="151-1"
       d="m 10.482,12.156 c -1.418399,-2.2682 0.09104,-5.5872 2.7329,-6.0086 2.6015,-0.62394 5.2683,1.8624 4.8283,4.5011 l -0.06627,0.37741" />
    <text
       id="152"
       x="4"
       y="119"
       style="font-size:11px;font-family:'Microsoft Sans Serif';opacity:1;fill:#000000;stroke:none"
       clip-path="url(#154_text_clipper)"><tspan
         dy="8.25pt"
         id="156-4">KeyDown</tspan></text>
  </g>
</svg>
